<svg width="80" height="80" viewBox="0 0 80 80" xmlns="http://www.w3.org/2000/svg">
  <defs>
    <clipPath id="clip"><rect x="0" y="0" width="80" height="80" rx="10"/></clipPath>
  </defs>
  <rect x="0" y="0" width="80" height="80" rx="10" fill="#5DCAA5" stroke="#0F6E56" stroke-width="1"/>
  <!-- Mountains -->
  <path d="M0,100 L0,58 Q8,42 18,30 Q25,22 32,30 Q38,20 45,8 Q52,20 59,30 Q66,40 72,52 L80,100Z" fill="#D3D1C7" clip-path="url(#clip)"/>
  <path d="M0,58 Q8,42 18,30 Q25,22 32,30 Q38,20 45,8 Q52,20 59,30 Q66,40 72,52" fill="none" stroke="#5F5E5A" stroke-width="1.5" stroke-linecap="round" stroke-linejoin="round" clip-path="url(#clip)"/>
  <!-- Snow caps -->
  <ellipse cx="45" cy="9" rx="7" ry="4" fill="white" clip-path="url(#clip)"/>
  <ellipse cx="32" cy="31" rx="5" ry="3" fill="white" clip-path="url(#clip)"/>
  <!-- Pine trees -->
  <polygon points="8,62 11,53 14,62" fill="#085041" clip-path="url(#clip)"/>
  <polygon points="66,60 69,51 72,60" fill="#085041" clip-path="url(#clip)"/>
</svg>
